<svg width="172" height="159" viewBox="0 0 172 159" fill="none" xmlns="http://www.w3.org/2000/svg">
<path d="M82.6629 5.48192C84.2273 2.95931 87.8975 2.95932 89.4618 5.48192L156.081 112.912C157.734 115.577 155.817 119.02 152.682 119.02H19.4429C16.3075 119.02 14.3911 115.577 16.0435 112.912L82.6629 5.48192Z" fill="#ff0000"/>
<path d="M82.2305 77.8809H88.7588L89.3398 45H81.6836L82.2305 77.8809ZM85.5117 94.6973C86.7878 94.6973 87.8587 94.2757 88.7246 93.4326C89.5905 92.5667 90.0234 91.5072 90.0234 90.2539C90.0234 89.0007 89.5905 87.9525 88.7246 87.1094C87.8587 86.2435 86.7878 85.8105 85.5117 85.8105C84.2357 85.8105 83.1647 86.2435 82.2988 87.1094C81.4329 87.9525 81 89.0007 81 90.2539C81 91.5072 81.4329 92.5667 82.2988 93.4326C83.1647 94.2757 84.2357 94.6973 85.5117 94.6973Z" fill="#ffffff"/>
</svg>
